<svg width="254" height="113" viewBox="0 0 254 113" fill="none" xmlns="http://www.w3.org/2000/svg">
<path d="M10.015 85.3896C8.66297 85.3896 7.44297 85.1696 6.35497 84.7296C5.27497 84.2896 4.35497 83.6736 3.59497 82.8816C2.83497 82.0816 2.25097 81.1456 1.84297 80.0736C1.44297 78.9936 1.24297 77.8176 1.24297 76.5456C1.24297 74.8176 1.59897 73.2896 2.31097 71.9616C3.02297 70.6256 4.01097 69.5816 5.27497 68.8296C6.53897 68.0776 8.01097 67.7016 9.69097 67.7016C10.259 67.7016 10.811 67.7416 11.347 67.8216C11.883 67.9016 12.391 68.0096 12.871 68.1456C13.351 68.2816 13.795 68.4296 14.203 68.5896C14.611 68.7496 14.963 68.9136 15.259 69.0816L15.067 71.1696C14.443 70.8016 13.835 70.5056 13.243 70.2816C12.659 70.0496 12.083 69.8816 11.515 69.7776C10.955 69.6736 10.407 69.6216 9.87097 69.6216C8.63897 69.6216 7.54297 69.9016 6.58297 70.4616C5.62297 71.0216 4.86697 71.8216 4.31497 72.8616C3.77097 73.8936 3.49897 75.1256 3.49897 76.5576C3.49897 77.5096 3.63897 78.4056 3.91897 79.2456C4.20697 80.0856 4.63097 80.8256 5.19097 81.4656C5.75897 82.1056 6.45897 82.6096 7.29097 82.9776C8.13097 83.3376 9.10697 83.5176 10.219 83.5176C10.627 83.5176 11.035 83.4936 11.443 83.4456C11.851 83.3896 12.255 83.3056 12.655 83.1936C13.055 83.0816 13.447 82.9336 13.831 82.7496C14.223 82.5576 14.607 82.3336 14.983 82.0776L15.151 84.1416C14.815 84.3576 14.443 84.5456 14.035 84.7056C13.635 84.8656 13.211 84.9976 12.763 85.1016C12.323 85.1976 11.871 85.2696 11.407 85.3176C10.943 85.3656 10.479 85.3896 10.015 85.3896ZM21.3207 85.3656C20.6087 85.3656 19.9847 85.2296 19.4487 84.9576C18.9127 84.6776 18.4927 84.2816 18.1887 83.7696C17.8927 83.2576 17.7447 82.6416 17.7447 81.9216C17.7447 81.2736 17.8607 80.7296 18.0927 80.2896C18.3247 79.8416 18.6287 79.4776 19.0047 79.1976C19.3807 78.9176 19.7967 78.7016 20.2527 78.5496C20.7087 78.3896 21.1647 78.2696 21.6207 78.1896L25.3527 77.5416C25.3847 76.7336 25.2767 76.1256 25.0287 75.7176C24.7887 75.3016 24.4487 75.0216 24.0087 74.8776C23.5687 74.7336 23.0807 74.6616 22.5447 74.6616C22.2727 74.6616 21.9807 74.6816 21.6687 74.7216C21.3567 74.7616 21.0247 74.8256 20.6727 74.9136C20.3287 74.9936 19.9647 75.0976 19.5807 75.2256C19.1967 75.3536 18.7927 75.5096 18.3687 75.6936L18.2607 73.8816C18.5487 73.7616 18.8727 73.6456 19.2327 73.5336C19.6007 73.4216 19.9887 73.3216 20.3967 73.2336C20.8127 73.1376 21.2367 73.0656 21.6687 73.0176C22.1007 72.9696 22.5367 72.9456 22.9767 72.9456C23.8647 72.9456 24.6287 73.0856 25.2687 73.3656C25.9167 73.6456 26.4127 74.0856 26.7567 74.6856C27.1007 75.2856 27.2727 76.0696 27.2727 77.0376C27.2727 77.4056 27.2727 77.8736 27.2727 78.4416C27.2727 79.0096 27.2727 79.5496 27.2727 80.0616V81.6096C27.2727 82.1536 27.2727 82.7096 27.2727 83.2776C27.2727 83.8376 27.2727 84.4536 27.2727 85.1256H25.4727L25.3647 83.4336H25.1727C24.9247 83.7536 24.6127 84.0616 24.2367 84.3576C23.8607 84.6536 23.4247 84.8976 22.9287 85.0896C22.4407 85.2736 21.9047 85.3656 21.3207 85.3656ZM21.8967 83.7216C22.3207 83.7216 22.7447 83.6336 23.1687 83.4576C23.5927 83.2816 23.9887 83.0216 24.3567 82.6776C24.7327 82.3256 25.0487 81.8856 25.3047 81.3576L25.3167 78.7896C25.1887 78.8616 25.0167 78.9336 24.8007 79.0056C24.5927 79.0776 24.2767 79.1616 23.8527 79.2576C23.4367 79.3456 22.8567 79.4576 22.1127 79.5936C21.6567 79.6736 21.2527 79.8056 20.9007 79.9896C20.5487 80.1656 20.2687 80.4096 20.0607 80.7216C19.8607 81.0256 19.7607 81.3976 19.7607 81.8376C19.7607 82.5256 19.9647 83.0136 20.3727 83.3016C20.7887 83.5816 21.2967 83.7216 21.8967 83.7216ZM31.0992 89.8056C31.0992 88.9256 31.0992 88.0616 31.0992 87.2136C31.0992 86.3736 31.0992 85.4616 31.0992 84.4776V78.6696C31.0992 77.7896 31.0992 76.8896 31.0992 75.9696C31.0992 75.0496 31.0992 74.1336 31.0992 73.2216L32.8992 73.1016L32.9472 74.6496H33.1512C33.3912 74.3376 33.6952 74.0536 34.0632 73.7976C34.4312 73.5336 34.8512 73.3256 35.3232 73.1736C35.8032 73.0136 36.3272 72.9336 36.8952 72.9336C37.9832 72.9336 38.9072 73.2056 39.6672 73.7496C40.4352 74.2856 41.0192 75.0216 41.4192 75.9576C41.8192 76.8936 42.0192 77.9536 42.0192 79.1376C42.0192 80.2496 41.8312 81.2816 41.4552 82.2336C41.0872 83.1776 40.5232 83.9416 39.7632 84.5256C39.0112 85.1016 38.0672 85.3896 36.9312 85.3896C36.4032 85.3896 35.9152 85.3176 35.4672 85.1736C35.0192 85.0376 34.6112 84.8416 34.2432 84.5856C33.8832 84.3216 33.5552 84.0016 33.2592 83.6256H33.0792V84.5616C33.0792 85.4976 33.0792 86.3696 33.0792 87.1776C33.0792 87.9936 33.0792 88.8456 33.0792 89.7336L31.0992 89.8056ZM36.3312 83.6136C37.1872 83.6136 37.8832 83.4016 38.4192 82.9776C38.9632 82.5536 39.3592 82.0056 39.6072 81.3336C39.8632 80.6536 39.9912 79.9256 39.9912 79.1496C39.9912 78.3416 39.8552 77.6056 39.5832 76.9416C39.3192 76.2696 38.9152 75.7336 38.3712 75.3336C37.8272 74.9336 37.1352 74.7336 36.2952 74.7336C35.8792 74.7336 35.4712 74.7976 35.0712 74.9256C34.6712 75.0456 34.2992 75.2296 33.9552 75.4776C33.6192 75.7176 33.3272 76.0176 33.0792 76.3776V81.6696C33.3192 82.0776 33.5952 82.4256 33.9072 82.7136C34.2272 83.0016 34.5872 83.2256 34.9872 83.3856C35.3872 83.5376 35.8352 83.6136 36.3312 83.6136ZM45.3263 85.1256C45.3263 84.2376 45.3263 83.3856 45.3263 82.5696C45.3263 81.7536 45.3263 80.8536 45.3263 79.8696V78.6696C45.3263 77.9576 45.3263 77.3016 45.3263 76.7016C45.3263 76.0936 45.3263 75.5096 45.3263 74.9496C45.3263 74.3816 45.3263 73.8056 45.3263 73.2216L47.3183 73.1496C47.3183 73.7416 47.3183 74.3256 47.3183 74.9016C47.3183 75.4696 47.3183 76.0616 47.3183 76.6776C47.3183 77.2856 47.3183 77.9496 47.3183 78.6696V79.8696C47.3183 80.8536 47.3183 81.7536 47.3183 82.5696C47.3183 83.3856 47.3183 84.2376 47.3183 85.1256H45.3263ZM46.2863 70.4736C45.8543 70.4736 45.5023 70.3536 45.2303 70.1136C44.9583 69.8736 44.8223 69.5056 44.8223 69.0096C44.8223 68.5216 44.9583 68.1576 45.2303 67.9176C45.5023 67.6696 45.8623 67.5456 46.3103 67.5456C46.7503 67.5456 47.1023 67.6736 47.3663 67.9296C47.6303 68.1776 47.7623 68.5376 47.7623 69.0096C47.7623 69.5056 47.6303 69.8736 47.3663 70.1136C47.1023 70.3536 46.7423 70.4736 46.2863 70.4736ZM55.9783 85.3896C55.1863 85.3896 54.5143 85.2536 53.9623 84.9816C53.4103 84.7016 52.9903 84.2816 52.7023 83.7216C52.4223 83.1536 52.2823 82.4296 52.2823 81.5496C52.2823 80.8536 52.2823 80.1656 52.2823 79.4856C52.2823 78.7976 52.2823 78.1256 52.2823 77.4696C52.2823 76.8056 52.2823 76.1696 52.2823 75.5616C52.2823 74.9456 52.2823 74.3576 52.2823 73.7976C52.2823 72.9816 52.2823 72.2256 52.2823 71.5296C52.2823 70.8336 52.2823 70.1096 52.2823 69.3576L54.2383 68.9256C54.2383 69.5176 54.2383 70.0656 54.2383 70.5696C54.2383 71.0736 54.2383 71.5816 54.2383 72.0936C54.2383 72.6056 54.2383 73.1736 54.2383 73.7976V81.0816C54.2383 81.9376 54.4183 82.5816 54.7783 83.0136C55.1463 83.4456 55.7063 83.6616 56.4583 83.6616C56.7543 83.6616 57.0783 83.6136 57.4303 83.5176C57.7823 83.4136 58.0943 83.2536 58.3663 83.0376L58.5343 84.7776C58.3743 84.8976 58.1583 85.0056 57.8863 85.1016C57.6143 85.1896 57.3143 85.2576 56.9863 85.3056C56.6583 85.3616 56.3223 85.3896 55.9783 85.3896ZM49.9903 74.7936V73.2216H58.4143V74.7936C57.6143 74.7936 56.8063 74.7936 55.9903 74.7936C55.1823 74.7936 54.3943 74.7936 53.6263 74.7936H52.8103H49.9903ZM64.0941 85.3656C63.3821 85.3656 62.7581 85.2296 62.2221 84.9576C61.6861 84.6776 61.2661 84.2816 60.9621 83.7696C60.6661 83.2576 60.5181 82.6416 60.5181 81.9216C60.5181 81.2736 60.6341 80.7296 60.8661 80.2896C61.0981 79.8416 61.4021 79.4776 61.7781 79.1976C62.1541 78.9176 62.5701 78.7016 63.0261 78.5496C63.4821 78.3896 63.9381 78.2696 64.3941 78.1896L68.1261 77.5416C68.1581 76.7336 68.0501 76.1256 67.8021 75.7176C67.5621 75.3016 67.2221 75.0216 66.7821 74.8776C66.3421 74.7336 65.8541 74.6616 65.3181 74.6616C65.0461 74.6616 64.7541 74.6816 64.4421 74.7216C64.1301 74.7616 63.7981 74.8256 63.4461 74.9136C63.1021 74.9936 62.7381 75.0976 62.3541 75.2256C61.9701 75.3536 61.5661 75.5096 61.1421 75.6936L61.0341 73.8816C61.3221 73.7616 61.6461 73.6456 62.0061 73.5336C62.3741 73.4216 62.7621 73.3216 63.1701 73.2336C63.5861 73.1376 64.0101 73.0656 64.4421 73.0176C64.8741 72.9696 65.3101 72.9456 65.7501 72.9456C66.6381 72.9456 67.4021 73.0856 68.0421 73.3656C68.6901 73.6456 69.1861 74.0856 69.5301 74.6856C69.8741 75.2856 70.0461 76.0696 70.0461 77.0376C70.0461 77.4056 70.0461 77.8736 70.0461 78.4416C70.0461 79.0096 70.0461 79.5496 70.0461 80.0616V81.6096C70.0461 82.1536 70.0461 82.7096 70.0461 83.2776C70.0461 83.8376 70.0461 84.4536 70.0461 85.1256H68.2461L68.1381 83.4336H67.9461C67.6981 83.7536 67.3861 84.0616 67.0101 84.3576C66.6341 84.6536 66.1981 84.8976 65.7021 85.0896C65.2141 85.2736 64.6781 85.3656 64.0941 85.3656ZM64.6701 83.7216C65.0941 83.7216 65.5181 83.6336 65.9421 83.4576C66.3661 83.2816 66.7621 83.0216 67.1301 82.6776C67.5061 82.3256 67.8221 81.8856 68.0781 81.3576L68.0901 78.7896C67.9621 78.8616 67.7901 78.9336 67.5741 79.0056C67.3661 79.0776 67.0501 79.1616 66.6261 79.2576C66.2101 79.3456 65.6301 79.4576 64.8861 79.5936C64.4301 79.6736 64.0261 79.8056 63.6741 79.9896C63.3221 80.1656 63.0421 80.4096 62.8341 80.7216C62.6341 81.0256 62.5341 81.3976 62.5341 81.8376C62.5341 82.5256 62.7381 83.0136 63.1461 83.3016C63.5621 83.5816 64.0701 83.7216 64.6701 83.7216ZM73.8726 85.1256C73.8726 84.2376 73.8726 83.3856 73.8726 82.5696C73.8726 81.7536 73.8726 80.8536 73.8726 79.8696V73.2816C73.8726 72.2736 73.8726 71.2936 73.8726 70.3416C73.8726 69.3896 73.8726 68.4616 73.8726 67.5576L75.8526 67.3176C75.8526 68.2856 75.8526 69.2576 75.8526 70.2336C75.8526 71.2016 75.8526 72.2176 75.8526 73.2816V79.8696C75.8526 80.8536 75.8526 81.7536 75.8526 82.5696C75.8526 83.3856 75.8526 84.2376 75.8526 85.1256H73.8726ZM79.5103 85.1256C79.6223 84.1976 79.7343 83.2816 79.8463 82.3776C79.9663 81.4736 80.0903 80.4896 80.2183 79.4256L80.9263 73.7856C81.0543 72.7376 81.1743 71.7616 81.2863 70.8576C81.3983 69.9536 81.5183 69.0056 81.6463 68.0136H83.8303C84.3263 69.2296 84.8063 70.4056 85.2703 71.5416C85.7343 72.6696 86.1943 73.7936 86.6503 74.9136L89.3623 81.5616H89.5303L92.2183 74.9256C92.6743 73.7896 93.1303 72.6616 93.5863 71.5416C94.0423 70.4216 94.5143 69.2456 95.0023 68.0136H97.1863C97.3063 68.9896 97.4183 69.9296 97.5223 70.8336C97.6343 71.7376 97.7583 72.7176 97.8943 73.7736L98.5903 79.4736C98.7183 80.5136 98.8383 81.4816 98.9503 82.3776C99.0623 83.2656 99.1743 84.1816 99.2863 85.1256H97.2103C97.0263 83.6056 96.8503 82.1616 96.6823 80.7936C96.5143 79.4256 96.3583 78.1496 96.2143 76.9656L95.5903 71.8536H95.4343L93.2623 77.3616C92.7343 78.6976 92.2063 80.0376 91.6783 81.3816C91.1503 82.7176 90.6583 83.9656 90.2023 85.1256H88.7263C88.4383 84.3976 88.1183 83.5976 87.7663 82.7256C87.4143 81.8536 87.0503 80.9616 86.6743 80.0496C86.3063 79.1376 85.9463 78.2536 85.5943 77.3976L83.3503 71.8536H83.1943L82.5703 76.9536C82.4263 78.1456 82.2703 79.4256 82.1023 80.7936C81.9423 82.1616 81.7703 83.6056 81.5863 85.1256H79.5103ZM105.485 85.3656C104.773 85.3656 104.149 85.2296 103.613 84.9576C103.077 84.6776 102.657 84.2816 102.353 83.7696C102.057 83.2576 101.909 82.6416 101.909 81.9216C101.909 81.2736 102.025 80.7296 102.257 80.2896C102.489 79.8416 102.793 79.4776 103.169 79.1976C103.545 78.9176 103.961 78.7016 104.417 78.5496C104.873 78.3896 105.329 78.2696 105.785 78.1896L109.517 77.5416C109.549 76.7336 109.441 76.1256 109.193 75.7176C108.953 75.3016 108.613 75.0216 108.173 74.8776C107.733 74.7336 107.245 74.6616 106.709 74.6616C106.437 74.6616 106.145 74.6816 105.833 74.7216C105.521 74.7616 105.189 74.8256 104.837 74.9136C104.493 74.9936 104.129 75.0976 103.745 75.2256C103.361 75.3536 102.957 75.5096 102.533 75.6936L102.425 73.8816C102.713 73.7616 103.037 73.6456 103.397 73.5336C103.765 73.4216 104.153 73.3216 104.561 73.2336C104.977 73.1376 105.401 73.0656 105.833 73.0176C106.265 72.9696 106.701 72.9456 107.141 72.9456C108.029 72.9456 108.793 73.0856 109.433 73.3656C110.081 73.6456 110.577 74.0856 110.921 74.6856C111.265 75.2856 111.437 76.0696 111.437 77.0376C111.437 77.4056 111.437 77.8736 111.437 78.4416C111.437 79.0096 111.437 79.5496 111.437 80.0616V81.6096C111.437 82.1536 111.437 82.7096 111.437 83.2776C111.437 83.8376 111.437 84.4536 111.437 85.1256H109.637L109.529 83.4336H109.337C109.089 83.7536 108.777 84.0616 108.401 84.3576C108.025 84.6536 107.589 84.8976 107.093 85.0896C106.605 85.2736 106.069 85.3656 105.485 85.3656ZM106.061 83.7216C106.485 83.7216 106.909 83.6336 107.333 83.4576C107.757 83.2816 108.153 83.0216 108.521 82.6776C108.897 82.3256 109.213 81.8856 109.469 81.3576L109.481 78.7896C109.353 78.8616 109.181 78.9336 108.965 79.0056C108.757 79.0776 108.441 79.1616 108.017 79.2576C107.601 79.3456 107.021 79.4576 106.277 79.5936C105.821 79.6736 105.417 79.8056 105.065 79.9896C104.713 80.1656 104.433 80.4096 104.225 80.7216C104.025 81.0256 103.925 81.3976 103.925 81.8376C103.925 82.5256 104.129 83.0136 104.537 83.3016C104.953 83.5816 105.461 83.7216 106.061 83.7216ZM115.263 85.1256C115.263 84.2376 115.263 83.3856 115.263 82.5696C115.263 81.7536 115.263 80.8536 115.263 79.8696V78.6696C115.263 77.7896 115.263 76.8896 115.263 75.9696C115.263 75.0496 115.263 74.1336 115.263 73.2216L116.991 73.1016L117.051 75.5256H117.255C117.583 74.7976 117.959 74.2496 118.383 73.8816C118.815 73.5056 119.251 73.2536 119.691 73.1256C120.131 72.9976 120.535 72.9336 120.903 72.9336C121.127 72.9336 121.351 72.9496 121.575 72.9816C121.799 73.0136 122.011 73.0656 122.211 73.1376L122.031 75.1296C121.767 75.0816 121.527 75.0416 121.311 75.0096C121.103 74.9776 120.859 74.9616 120.579 74.9616C120.347 74.9616 120.083 74.9976 119.787 75.0696C119.499 75.1336 119.199 75.2736 118.887 75.4896C118.583 75.6976 118.287 76.0136 117.999 76.4376C117.711 76.8536 117.459 77.4096 117.243 78.1056V79.9536C117.243 80.8896 117.243 81.7656 117.243 82.5816C117.243 83.3896 117.243 84.2376 117.243 85.1256H115.263ZM132.745 85.1256C132.209 84.5816 131.665 84.0376 131.113 83.4936C130.569 82.9496 130.029 82.4096 129.493 81.8736L127.441 79.8216H126.601V78.4056H127.561L129.289 76.5696C129.817 76.0176 130.349 75.4616 130.885 74.9016C131.421 74.3336 131.949 73.7736 132.469 73.2216H134.917C134.229 73.9176 133.545 74.6136 132.865 75.3096C132.185 76.0056 131.509 76.7016 130.837 77.3976L128.809 79.4616L128.737 78.5016L131.089 80.9256C131.801 81.6296 132.509 82.3336 133.213 83.0376C133.925 83.7336 134.629 84.4296 135.325 85.1256H132.745ZM124.849 85.1256C124.849 84.2376 124.849 83.3856 124.849 82.5696C124.849 81.7536 124.849 80.8536 124.849 79.8696V73.2816C124.849 72.2736 124.849 71.2936 124.849 70.3416C124.849 69.3896 124.849 68.4616 124.849 67.5576L126.829 67.3176C126.829 68.2696 126.829 69.2376 126.829 70.2216C126.829 71.1976 126.829 72.2176 126.829 73.2816V80.1816C126.829 81.0776 126.829 81.9136 126.829 82.6896C126.829 83.4656 126.829 84.2776 126.829 85.1256H124.849ZM142.694 85.3896C141.27 85.3896 140.098 85.1176 139.178 84.5736C138.258 84.0296 137.574 83.2856 137.126 82.3416C136.678 81.3976 136.454 80.3176 136.454 79.1016C136.454 77.9016 136.674 76.8376 137.114 75.9096C137.554 74.9816 138.186 74.2576 139.01 73.7376C139.834 73.2096 140.818 72.9456 141.962 72.9456C142.97 72.9456 143.834 73.1416 144.554 73.5336C145.282 73.9256 145.842 74.5016 146.234 75.2616C146.626 76.0136 146.822 76.9456 146.822 78.0576C146.822 78.3536 146.814 78.6216 146.798 78.8616C146.79 79.0936 146.766 79.3296 146.726 79.5696L144.986 78.6936C145.002 78.5656 145.01 78.4456 145.01 78.3336C145.018 78.2136 145.022 78.0976 145.022 77.9856C145.022 76.8576 144.742 76.0016 144.182 75.4176C143.622 74.8256 142.89 74.5296 141.986 74.5296C141.258 74.5296 140.63 74.7176 140.102 75.0936C139.582 75.4616 139.178 75.9736 138.89 76.6296C138.602 77.2856 138.458 78.0336 138.458 78.8736V79.1496C138.458 80.0776 138.618 80.8776 138.938 81.5496C139.258 82.2216 139.742 82.7416 140.39 83.1096C141.046 83.4696 141.878 83.6496 142.886 83.6496C143.262 83.6496 143.658 83.6216 144.074 83.5656C144.498 83.5016 144.914 83.4056 145.322 83.2776C145.738 83.1496 146.134 82.9816 146.51 82.7736L146.594 84.5616C146.29 84.7296 145.938 84.8776 145.538 85.0056C145.138 85.1256 144.698 85.2176 144.218 85.2816C143.738 85.3536 143.23 85.3896 142.694 85.3896ZM137.282 79.5696V78.1536L145.514 78.0816L146.726 78.5376V79.5696H137.282ZM154.322 85.3896C153.53 85.3896 152.858 85.2536 152.306 84.9816C151.754 84.7016 151.334 84.2816 151.046 83.7216C150.766 83.1536 150.626 82.4296 150.626 81.5496C150.626 80.8536 150.626 80.1656 150.626 79.4856C150.626 78.7976 150.626 78.1256 150.626 77.4696C150.626 76.8056 150.626 76.1696 150.626 75.5616C150.626 74.9456 150.626 74.3576 150.626 73.7976C150.626 72.9816 150.626 72.2256 150.626 71.5296C150.626 70.8336 150.626 70.1096 150.626 69.3576L152.582 68.9256C152.582 69.5176 152.582 70.0656 152.582 70.5696C152.582 71.0736 152.582 71.5816 152.582 72.0936C152.582 72.6056 152.582 73.1736 152.582 73.7976V81.0816C152.582 81.9376 152.762 82.5816 153.122 83.0136C153.49 83.4456 154.05 83.6616 154.802 83.6616C155.098 83.6616 155.422 83.6136 155.774 83.5176C156.126 83.4136 156.438 83.2536 156.71 83.0376L156.878 84.7776C156.718 84.8976 156.502 85.0056 156.23 85.1016C155.958 85.1896 155.658 85.2576 155.33 85.3056C155.002 85.3616 154.666 85.3896 154.322 85.3896ZM148.334 74.7936V73.2216H156.758V74.7936C155.958 74.7936 155.15 74.7936 154.334 74.7936C153.526 74.7936 152.738 74.7936 151.97 74.7936H151.154H148.334ZM163.014 85.3896C162.518 85.3896 162.018 85.3496 161.514 85.2696C161.018 85.1896 160.55 85.0856 160.11 84.9576C159.67 84.8216 159.286 84.6696 158.958 84.5016L159.114 82.6416C159.482 82.8496 159.874 83.0336 160.29 83.1936C160.714 83.3456 161.15 83.4656 161.598 83.5536C162.054 83.6336 162.51 83.6736 162.966 83.6736C163.406 83.6736 163.81 83.6256 164.178 83.5296C164.554 83.4256 164.85 83.2416 165.066 82.9776C165.29 82.7056 165.402 82.3136 165.402 81.8016C165.402 81.4656 165.306 81.1896 165.114 80.9736C164.922 80.7576 164.598 80.5616 164.142 80.3856C163.694 80.2096 163.086 80.0136 162.318 79.7976C161.686 79.6216 161.122 79.4056 160.626 79.1496C160.13 78.8936 159.738 78.5496 159.45 78.1176C159.17 77.6856 159.03 77.1216 159.03 76.4256C159.03 75.3456 159.382 74.4976 160.086 73.8816C160.798 73.2576 161.754 72.9456 162.954 72.9456C163.45 72.9456 163.93 72.9896 164.394 73.0776C164.858 73.1576 165.286 73.2656 165.678 73.4016C166.07 73.5376 166.41 73.6816 166.698 73.8336L166.53 75.6936C166.146 75.4536 165.75 75.2576 165.342 75.1056C164.934 74.9456 164.542 74.8336 164.166 74.7696C163.79 74.6976 163.458 74.6616 163.17 74.6616C162.842 74.6616 162.514 74.7096 162.186 74.8056C161.866 74.8936 161.598 75.0616 161.382 75.3096C161.166 75.5496 161.058 75.8976 161.058 76.3536C161.058 76.6816 161.134 76.9576 161.286 77.1816C161.438 77.4056 161.702 77.6056 162.078 77.7816C162.454 77.9576 162.974 78.1416 163.638 78.3336C164.43 78.5656 165.106 78.8096 165.666 79.0656C166.234 79.3136 166.67 79.6416 166.974 80.0496C167.278 80.4576 167.43 81.0216 167.43 81.7416C167.43 82.4376 167.278 83.0616 166.974 83.6136C166.67 84.1576 166.194 84.5896 165.546 84.9096C164.898 85.2296 164.054 85.3896 163.014 85.3896ZM171.18 85.3896C170.852 85.3896 170.568 85.3216 170.328 85.1856C170.096 85.0496 169.916 84.8656 169.788 84.6336C169.66 84.4016 169.596 84.1296 169.596 83.8176C169.596 83.3456 169.74 82.9696 170.028 82.6896C170.316 82.4096 170.7 82.2696 171.18 82.2696C171.516 82.2696 171.8 82.3336 172.032 82.4616C172.264 82.5896 172.444 82.7696 172.572 83.0016C172.708 83.2336 172.776 83.5056 172.776 83.8176C172.776 84.2816 172.632 84.6616 172.344 84.9576C172.064 85.2456 171.676 85.3896 171.18 85.3896ZM183.98 85.1256C183.444 84.5816 182.9 84.0376 182.348 83.4936C181.804 82.9496 181.264 82.4096 180.728 81.8736L178.676 79.8216H177.836V78.4056H178.796L180.524 76.5696C181.052 76.0176 181.584 75.4616 182.12 74.9016C182.656 74.3336 183.184 73.7736 183.704 73.2216H186.152C185.464 73.9176 184.78 74.6136 184.1 75.3096C183.42 76.0056 182.744 76.7016 182.072 77.3976L180.044 79.4616L179.972 78.5016L182.324 80.9256C183.036 81.6296 183.744 82.3336 184.448 83.0376C185.16 83.7336 185.864 84.4296 186.56 85.1256H183.98ZM176.084 85.1256C176.084 84.2376 176.084 83.3856 176.084 82.5696C176.084 81.7536 176.084 80.8536 176.084 79.8696V73.2816C176.084 72.2736 176.084 71.2936 176.084 70.3416C176.084 69.3896 176.084 68.4616 176.084 67.5576L178.064 67.3176C178.064 68.2696 178.064 69.2376 178.064 70.2216C178.064 71.1976 178.064 72.2176 178.064 73.2816V80.1816C178.064 81.0776 178.064 81.9136 178.064 82.6896C178.064 83.4656 178.064 84.2776 178.064 85.1256H176.084ZM187.951 85.1256V84.1056C188.631 83.2176 189.295 82.3496 189.943 81.5016C190.591 80.6456 191.203 79.8416 191.779 79.0896L195.595 74.0856L195.883 74.8056H193.255C192.823 74.8056 192.307 74.8056 191.707 74.8056C191.115 74.8056 190.495 74.8056 189.847 74.8056C189.199 74.8056 188.583 74.8056 187.999 74.8056V73.2216H197.719V74.4096C197.407 74.8096 197.043 75.2776 196.627 75.8136C196.219 76.3496 195.795 76.9056 195.355 77.4816C194.923 78.0496 194.507 78.5896 194.107 79.1016L190.315 84.0576L190.099 83.5416H193.003C193.435 83.5416 193.943 83.5416 194.527 83.5416C195.119 83.5416 195.727 83.5416 196.351 83.5416C196.975 83.5416 197.555 83.5416 198.091 83.5416V85.1256H187.951Z" fill="black"/>
<path d="M5.14855 110.126C5.14855 109.729 5.14855 109.347 5.14855 108.981C5.14855 108.614 5.14855 108.211 5.14855 107.771V105.511C5.14855 105.064 5.14855 104.656 5.14855 104.286C5.14855 103.912 5.14855 103.526 5.14855 103.126L5.50855 103.801H4.66355C4.26022 103.801 3.90189 103.801 3.58855 103.801C3.27855 103.801 2.98355 103.801 2.70355 103.801V102.996H8.49355V103.801C8.21355 103.801 7.91855 103.801 7.60856 103.801C7.29856 103.801 6.94022 103.801 6.53356 103.801H5.68855L6.05355 103.126C6.05355 103.526 6.05355 103.912 6.05355 104.286C6.05355 104.656 6.05355 105.064 6.05355 105.511V107.771C6.05355 108.211 6.05355 108.614 6.05355 108.981C6.05355 109.347 6.05355 109.729 6.05355 110.126H5.14855ZM9.6598 110.126C9.6598 109.756 9.6598 109.401 9.6598 109.061C9.6598 108.721 9.6598 108.346 9.6598 107.936V105.191C9.6598 104.771 9.6598 104.362 9.6598 103.966C9.6598 103.569 9.6598 103.182 9.6598 102.806L10.4848 102.706C10.4848 103.102 10.4848 103.506 10.4848 103.916C10.4848 104.322 10.4848 104.747 10.4848 105.191V105.991H10.5748C10.6748 105.851 10.8031 105.707 10.9598 105.561C11.1198 105.414 11.3081 105.292 11.5248 105.196C11.7448 105.096 11.9948 105.046 12.2748 105.046C12.8015 105.046 13.1865 105.197 13.4298 105.501C13.6731 105.804 13.7948 106.244 13.7948 106.821C13.7948 107.037 13.7948 107.229 13.7948 107.396C13.7948 107.562 13.7948 107.742 13.7948 107.936C13.7948 108.329 13.7948 108.701 13.7948 109.051C13.7948 109.397 13.7948 109.756 13.7948 110.126H12.9698C12.9698 109.756 12.9698 109.399 12.9698 109.056C12.9698 108.709 12.9698 108.347 12.9698 107.971V107.031C12.9698 106.634 12.8981 106.334 12.7548 106.131C12.6148 105.927 12.3598 105.826 11.9898 105.826C11.7665 105.826 11.5631 105.871 11.3798 105.961C11.1965 106.051 11.0298 106.172 10.8798 106.326C10.7331 106.476 10.6015 106.642 10.4848 106.826V107.971C10.4848 108.361 10.4848 108.726 10.4848 109.066C10.4848 109.402 10.4848 109.756 10.4848 110.126H9.6598ZM17.6322 110.236C17.0389 110.236 16.5506 110.122 16.1672 109.896C15.7839 109.669 15.4989 109.359 15.3122 108.966C15.1256 108.572 15.0322 108.122 15.0322 107.616C15.0322 107.116 15.1239 106.672 15.3072 106.286C15.4906 105.899 15.7539 105.597 16.0972 105.381C16.4406 105.161 16.8506 105.051 17.3272 105.051C17.7472 105.051 18.1072 105.132 18.4072 105.296C18.7106 105.459 18.9439 105.699 19.1072 106.016C19.2706 106.329 19.3522 106.717 19.3522 107.181C19.3522 107.304 19.3489 107.416 19.3422 107.516C19.3389 107.612 19.3289 107.711 19.3122 107.811L18.5872 107.446C18.5939 107.392 18.5972 107.342 18.5972 107.296C18.6006 107.246 18.6022 107.197 18.6022 107.151C18.6022 106.681 18.4856 106.324 18.2522 106.081C18.0189 105.834 17.7139 105.711 17.3372 105.711C17.0339 105.711 16.7722 105.789 16.5522 105.946C16.3356 106.099 16.1672 106.312 16.0472 106.586C15.9272 106.859 15.8672 107.171 15.8672 107.521V107.636C15.8672 108.022 15.9339 108.356 16.0672 108.636C16.2006 108.916 16.4022 109.132 16.6722 109.286C16.9456 109.436 17.2922 109.511 17.7122 109.511C17.8689 109.511 18.0339 109.499 18.2072 109.476C18.3839 109.449 18.5572 109.409 18.7272 109.356C18.9006 109.302 19.0656 109.232 19.2222 109.146L19.2572 109.891C19.1306 109.961 18.9839 110.022 18.8172 110.076C18.6506 110.126 18.4672 110.164 18.2672 110.191C18.0672 110.221 17.8556 110.236 17.6322 110.236ZM15.3772 107.811V107.221L18.8072 107.191L19.3122 107.381V107.811H15.3772ZM26.0197 110.231C25.3997 110.231 24.8531 110.139 24.3797 109.956C23.9097 109.769 23.5147 109.509 23.1947 109.176C22.8747 108.842 22.6314 108.452 22.4647 108.006C22.3014 107.556 22.2197 107.069 22.2197 106.546C22.2197 105.829 22.3664 105.194 22.6597 104.641C22.9564 104.084 23.3731 103.649 23.9097 103.336C24.4497 103.022 25.0847 102.866 25.8147 102.866C26.0647 102.866 26.3064 102.882 26.5397 102.916C26.7764 102.949 26.9981 102.996 27.2047 103.056C27.4147 103.112 27.6064 103.174 27.7797 103.241C27.9564 103.307 28.1081 103.374 28.2347 103.441L28.1547 104.311C27.8781 104.157 27.6097 104.034 27.3497 103.941C27.0897 103.844 26.8364 103.774 26.5897 103.731C26.3431 103.687 26.1031 103.666 25.8697 103.666C25.4731 103.666 25.1081 103.731 24.7747 103.861C24.4447 103.991 24.1581 104.181 23.9147 104.431C23.6714 104.681 23.4831 104.984 23.3497 105.341C23.2197 105.697 23.1547 106.101 23.1547 106.551C23.1547 106.957 23.2114 107.337 23.3247 107.691C23.4414 108.044 23.6181 108.354 23.8547 108.621C24.0947 108.887 24.3997 109.096 24.7697 109.246C25.1397 109.392 25.5781 109.466 26.0847 109.466C26.2714 109.466 26.4581 109.457 26.6447 109.441C26.8314 109.421 27.0147 109.391 27.1947 109.351C27.3781 109.307 27.5581 109.254 27.7347 109.191C27.9114 109.124 28.0831 109.046 28.2497 108.956L28.3547 109.806C28.2414 109.859 28.0997 109.911 27.9297 109.961C27.7631 110.011 27.5764 110.057 27.3697 110.101C27.1631 110.141 26.9447 110.172 26.7147 110.196C26.4881 110.219 26.2564 110.231 26.0197 110.231ZM27.4997 109.821C27.4997 109.467 27.4997 109.159 27.4997 108.896C27.4997 108.632 27.4997 108.369 27.4997 108.106C27.4997 107.792 27.4997 107.516 27.4997 107.276C27.4997 107.036 27.4997 106.792 27.4997 106.546H28.3547C28.3547 106.792 28.3547 107.036 28.3547 107.276C28.3547 107.516 28.3547 107.792 28.3547 108.106C28.3547 108.369 28.3547 108.632 28.3547 108.896C28.3547 109.156 28.3547 109.459 28.3547 109.806L27.4997 109.821ZM31.0737 110.226C30.777 110.226 30.517 110.169 30.2937 110.056C30.0704 109.939 29.8954 109.774 29.7687 109.561C29.6454 109.347 29.5837 109.091 29.5837 108.791C29.5837 108.521 29.632 108.294 29.7287 108.111C29.8254 107.924 29.952 107.772 30.1087 107.656C30.2654 107.539 30.4387 107.449 30.6287 107.386C30.8187 107.319 31.0087 107.269 31.1987 107.236L32.7537 106.966C32.767 106.629 32.722 106.376 32.6187 106.206C32.5187 106.032 32.377 105.916 32.1937 105.856C32.0104 105.796 31.807 105.766 31.5837 105.766C31.4704 105.766 31.3487 105.774 31.2187 105.791C31.0887 105.807 30.9504 105.834 30.8037 105.871C30.6604 105.904 30.5087 105.947 30.3487 106.001C30.1887 106.054 30.0204 106.119 29.8437 106.196L29.7987 105.441C29.9187 105.391 30.0537 105.342 30.2037 105.296C30.357 105.249 30.5187 105.207 30.6887 105.171C30.862 105.131 31.0387 105.101 31.2187 105.081C31.3987 105.061 31.5804 105.051 31.7637 105.051C32.1337 105.051 32.452 105.109 32.7187 105.226C32.9887 105.342 33.1954 105.526 33.3387 105.776C33.482 106.026 33.5537 106.352 33.5537 106.756C33.5537 106.909 33.5537 107.104 33.5537 107.341C33.5537 107.577 33.5537 107.802 33.5537 108.016V108.661C33.5537 108.887 33.5537 109.119 33.5537 109.356C33.5537 109.589 33.5537 109.846 33.5537 110.126H32.8037L32.7587 109.421H32.6787C32.5754 109.554 32.4454 109.682 32.2887 109.806C32.132 109.929 31.9504 110.031 31.7437 110.111C31.5404 110.187 31.317 110.226 31.0737 110.226ZM31.3137 109.541C31.4904 109.541 31.667 109.504 31.8437 109.431C32.0204 109.357 32.1854 109.249 32.3387 109.106C32.4954 108.959 32.627 108.776 32.7337 108.556L32.7387 107.486C32.6854 107.516 32.6137 107.546 32.5237 107.576C32.437 107.606 32.3054 107.641 32.1287 107.681C31.9554 107.717 31.7137 107.764 31.4037 107.821C31.2137 107.854 31.0454 107.909 30.8987 107.986C30.752 108.059 30.6354 108.161 30.5487 108.291C30.4654 108.417 30.4237 108.572 30.4237 108.756C30.4237 109.042 30.5087 109.246 30.6787 109.366C30.852 109.482 31.0637 109.541 31.3137 109.541ZM37.0281 110.236C36.6981 110.236 36.4181 110.179 36.1881 110.066C35.9581 109.949 35.7831 109.774 35.6631 109.541C35.5464 109.304 35.4881 109.002 35.4881 108.636C35.4881 108.346 35.4881 108.059 35.4881 107.776C35.4881 107.489 35.4881 107.209 35.4881 106.936C35.4881 106.659 35.4881 106.394 35.4881 106.141C35.4881 105.884 35.4881 105.639 35.4881 105.406C35.4881 105.066 35.4881 104.751 35.4881 104.461C35.4881 104.171 35.4881 103.869 35.4881 103.556L36.3031 103.376C36.3031 103.622 36.3031 103.851 36.3031 104.061C36.3031 104.271 36.3031 104.482 36.3031 104.696C36.3031 104.909 36.3031 105.146 36.3031 105.406V108.441C36.3031 108.797 36.3781 109.066 36.5281 109.246C36.6814 109.426 36.9148 109.516 37.2281 109.516C37.3514 109.516 37.4864 109.496 37.6331 109.456C37.7798 109.412 37.9098 109.346 38.0231 109.256L38.0931 109.981C38.0264 110.031 37.9364 110.076 37.8231 110.116C37.7098 110.152 37.5848 110.181 37.4481 110.201C37.3114 110.224 37.1714 110.236 37.0281 110.236ZM34.5331 105.821V105.166H38.0431V105.821C37.7098 105.821 37.3731 105.821 37.0331 105.821C36.6964 105.821 36.3681 105.821 36.0481 105.821H35.7081H34.5331ZM41.4213 110.236C40.828 110.236 40.3396 110.122 39.9563 109.896C39.573 109.669 39.288 109.359 39.1013 108.966C38.9146 108.572 38.8213 108.122 38.8213 107.616C38.8213 107.116 38.913 106.672 39.0963 106.286C39.2796 105.899 39.543 105.597 39.8863 105.381C40.2296 105.161 40.6396 105.051 41.1163 105.051C41.5363 105.051 41.8963 105.132 42.1963 105.296C42.4996 105.459 42.733 105.699 42.8963 106.016C43.0596 106.329 43.1413 106.717 43.1413 107.181C43.1413 107.304 43.138 107.416 43.1313 107.516C43.128 107.612 43.118 107.711 43.1013 107.811L42.3763 107.446C42.383 107.392 42.3863 107.342 42.3863 107.296C42.3896 107.246 42.3913 107.197 42.3913 107.151C42.3913 106.681 42.2746 106.324 42.0413 106.081C41.808 105.834 41.503 105.711 41.1263 105.711C40.823 105.711 40.5613 105.789 40.3413 105.946C40.1246 106.099 39.9563 106.312 39.8363 106.586C39.7163 106.859 39.6563 107.171 39.6563 107.521V107.636C39.6563 108.022 39.723 108.356 39.8563 108.636C39.9896 108.916 40.1913 109.132 40.4613 109.286C40.7346 109.436 41.0813 109.511 41.5013 109.511C41.658 109.511 41.823 109.499 41.9963 109.476C42.173 109.449 42.3463 109.409 42.5163 109.356C42.6896 109.302 42.8546 109.232 43.0113 109.146L43.0463 109.891C42.9196 109.961 42.773 110.022 42.6063 110.076C42.4396 110.126 42.2563 110.164 42.0563 110.191C41.8563 110.221 41.6446 110.236 41.4213 110.236ZM39.1663 107.811V107.221L42.5963 107.191L43.1013 107.381V107.811H39.1663ZM45.3378 110.126C45.2378 109.812 45.1361 109.501 45.0328 109.191C44.9294 108.877 44.8244 108.559 44.7178 108.236L44.4328 107.356C44.3128 106.989 44.1928 106.626 44.0728 106.266C43.9561 105.902 43.8378 105.536 43.7178 105.166L44.5878 105.131C44.7111 105.537 44.8394 105.966 44.9728 106.416C45.1094 106.862 45.2394 107.292 45.3628 107.706L45.8228 109.241H45.9028L46.3528 107.671C46.4728 107.254 46.5928 106.839 46.7128 106.426C46.8328 106.009 46.9544 105.589 47.0778 105.166H47.8778C47.9978 105.569 48.1194 105.982 48.2428 106.406C48.3661 106.826 48.4878 107.241 48.6078 107.651L49.0728 109.241H49.1528L49.6228 107.631C49.7394 107.227 49.8611 106.807 49.9878 106.371C50.1178 105.931 50.2361 105.529 50.3428 105.166H51.2228C51.1061 105.529 50.9878 105.894 50.8678 106.261C50.7511 106.627 50.6344 106.992 50.5178 107.356L50.2378 108.226C50.1311 108.549 50.0261 108.871 49.9228 109.191C49.8194 109.507 49.7178 109.819 49.6178 110.126H48.6428C48.5261 109.742 48.4061 109.346 48.2828 108.936C48.1594 108.522 48.0394 108.131 47.9228 107.761L47.4878 106.316H47.4028L46.9728 107.776C46.8628 108.146 46.7478 108.534 46.6278 108.941C46.5078 109.347 46.3894 109.742 46.2728 110.126H45.3378ZM53.3979 110.226C53.1013 110.226 52.8413 110.169 52.6179 110.056C52.3946 109.939 52.2196 109.774 52.0929 109.561C51.9696 109.347 51.9079 109.091 51.9079 108.791C51.9079 108.521 51.9563 108.294 52.0529 108.111C52.1496 107.924 52.2763 107.772 52.4329 107.656C52.5896 107.539 52.7629 107.449 52.9529 107.386C53.1429 107.319 53.3329 107.269 53.5229 107.236L55.0779 106.966C55.0913 106.629 55.0463 106.376 54.9429 106.206C54.8429 106.032 54.7013 105.916 54.5179 105.856C54.3346 105.796 54.1313 105.766 53.9079 105.766C53.7946 105.766 53.6729 105.774 53.5429 105.791C53.4129 105.807 53.2746 105.834 53.1279 105.871C52.9846 105.904 52.8329 105.947 52.6729 106.001C52.5129 106.054 52.3446 106.119 52.1679 106.196L52.1229 105.441C52.2429 105.391 52.3779 105.342 52.5279 105.296C52.6813 105.249 52.8429 105.207 53.0129 105.171C53.1863 105.131 53.3629 105.101 53.5429 105.081C53.7229 105.061 53.9046 105.051 54.0879 105.051C54.4579 105.051 54.7763 105.109 55.0429 105.226C55.3129 105.342 55.5196 105.526 55.6629 105.776C55.8063 106.026 55.8779 106.352 55.8779 106.756C55.8779 106.909 55.8779 107.104 55.8779 107.341C55.8779 107.577 55.8779 107.802 55.8779 108.016V108.661C55.8779 108.887 55.8779 109.119 55.8779 109.356C55.8779 109.589 55.8779 109.846 55.8779 110.126H55.1279L55.0829 109.421H55.0029C54.8996 109.554 54.7696 109.682 54.6129 109.806C54.4563 109.929 54.2746 110.031 54.0679 110.111C53.8646 110.187 53.6413 110.226 53.3979 110.226ZM53.6379 109.541C53.8146 109.541 53.9913 109.504 54.1679 109.431C54.3446 109.357 54.5096 109.249 54.6629 109.106C54.8196 108.959 54.9513 108.776 55.0579 108.556L55.0629 107.486C55.0096 107.516 54.9379 107.546 54.8479 107.576C54.7613 107.606 54.6296 107.641 54.4529 107.681C54.2796 107.717 54.0379 107.764 53.7279 107.821C53.5379 107.854 53.3696 107.909 53.2229 107.986C53.0763 108.059 52.9596 108.161 52.8729 108.291C52.7896 108.417 52.7479 108.572 52.7479 108.756C52.7479 109.042 52.8329 109.246 53.0029 109.366C53.1763 109.482 53.3879 109.541 53.6379 109.541ZM57.8449 112.076C57.9782 111.749 58.1115 111.419 58.2449 111.086C58.3782 110.752 58.5115 110.422 58.6449 110.096V110.306C58.5182 109.966 58.3915 109.621 58.2649 109.271C58.1382 108.921 58.0132 108.581 57.8899 108.251L57.5599 107.351C57.4299 106.994 57.2949 106.629 57.1549 106.256C57.0182 105.882 56.8849 105.519 56.7549 105.166L57.6399 105.131C57.7832 105.561 57.9232 105.981 58.0599 106.391C58.1965 106.801 58.3365 107.219 58.4799 107.646L59.0049 109.241H59.0949L59.6699 107.641C59.8199 107.224 59.9682 106.811 60.1149 106.401C60.2615 105.991 60.4099 105.579 60.5599 105.166H61.4349C61.3282 105.432 61.2249 105.691 61.1249 105.941C61.0282 106.187 60.9199 106.461 60.7999 106.761C60.6832 107.061 60.5432 107.417 60.3799 107.831L59.8299 109.226C59.5799 109.859 59.3665 110.397 59.1899 110.841C59.0165 111.284 58.8582 111.686 58.7149 112.046L57.8449 112.076ZM66.3347 110.236C66.0047 110.236 65.7247 110.179 65.4947 110.066C65.2647 109.949 65.0897 109.774 64.9697 109.541C64.8531 109.304 64.7947 109.002 64.7947 108.636C64.7947 108.346 64.7947 108.059 64.7947 107.776C64.7947 107.489 64.7947 107.209 64.7947 106.936C64.7947 106.659 64.7947 106.394 64.7947 106.141C64.7947 105.884 64.7947 105.639 64.7947 105.406C64.7947 105.066 64.7947 104.751 64.7947 104.461C64.7947 104.171 64.7947 103.869 64.7947 103.556L65.6097 103.376C65.6097 103.622 65.6097 103.851 65.6097 104.061C65.6097 104.271 65.6097 104.482 65.6097 104.696C65.6097 104.909 65.6097 105.146 65.6097 105.406V108.441C65.6097 108.797 65.6847 109.066 65.8347 109.246C65.9881 109.426 66.2214 109.516 66.5347 109.516C66.6581 109.516 66.7931 109.496 66.9397 109.456C67.0864 109.412 67.2164 109.346 67.3297 109.256L67.3997 109.981C67.3331 110.031 67.2431 110.076 67.1297 110.116C67.0164 110.152 66.8914 110.181 66.7547 110.201C66.6181 110.224 66.4781 110.236 66.3347 110.236ZM63.8397 105.821V105.166H67.3497V105.821C67.0164 105.821 66.6797 105.821 66.3397 105.821C66.0031 105.821 65.6747 105.821 65.3547 105.821H65.0147H63.8397ZM70.6329 110.236C70.2229 110.236 69.8613 110.166 69.5479 110.026C69.2379 109.882 68.9779 109.689 68.7679 109.446C68.5579 109.202 68.3979 108.924 68.2879 108.611C68.1813 108.294 68.1279 107.962 68.1279 107.616C68.1279 107.119 68.2279 106.679 68.4279 106.296C68.6313 105.909 68.9179 105.604 69.2879 105.381C69.6613 105.157 70.1046 105.046 70.6179 105.046C71.0146 105.046 71.3663 105.111 71.6729 105.241C71.9796 105.371 72.2396 105.552 72.4529 105.786C72.6663 106.019 72.8279 106.292 72.9379 106.606C73.0479 106.916 73.1029 107.252 73.1029 107.616C73.1029 108.106 73.0029 108.549 72.8029 108.946C72.6029 109.342 72.3179 109.657 71.9479 109.891C71.5813 110.121 71.1429 110.236 70.6329 110.236ZM70.6329 109.516C70.9963 109.516 71.2979 109.426 71.5379 109.246C71.7779 109.066 71.9579 108.831 72.0779 108.541C72.1979 108.251 72.2579 107.942 72.2579 107.616C72.2579 107.242 72.1913 106.917 72.0579 106.641C71.9246 106.364 71.7363 106.149 71.4929 105.996C71.2496 105.842 70.9613 105.766 70.6279 105.766C70.2679 105.766 69.9646 105.847 69.7179 106.011C69.4713 106.174 69.2846 106.396 69.1579 106.676C69.0346 106.956 68.9729 107.269 68.9729 107.616C68.9729 107.942 69.0329 108.251 69.1529 108.541C69.2763 108.831 69.4613 109.066 69.7079 109.246C69.9546 109.426 70.2629 109.516 70.6329 109.516ZM80.7936 110.126C80.4769 109.782 80.1786 109.461 79.8986 109.161C79.6219 108.857 79.3519 108.562 79.0886 108.276L77.7336 106.811H77.2436V106.066H77.7286L78.9036 104.841C79.1802 104.554 79.4536 104.269 79.7236 103.986C79.9936 103.702 80.3069 103.372 80.6636 102.996H81.7636C81.3969 103.372 81.0386 103.742 80.6886 104.106C80.3419 104.466 79.9952 104.826 79.6486 105.186L78.3286 106.561L78.3136 106.161L79.7786 107.776C80.0086 108.022 80.2519 108.289 80.5086 108.576C80.7686 108.862 81.0236 109.141 81.2736 109.411C81.5236 109.681 81.7419 109.919 81.9286 110.126H80.7936ZM76.4436 110.126C76.4436 109.729 76.4436 109.347 76.4436 108.981C76.4436 108.614 76.4436 108.211 76.4436 107.771V105.381C76.4436 104.931 76.4436 104.521 76.4436 104.151C76.4436 103.777 76.4436 103.392 76.4436 102.996H77.3486C77.3486 103.392 77.3486 103.777 77.3486 104.151C77.3486 104.521 77.3486 104.931 77.3486 105.381V107.771C77.3486 108.211 77.3486 108.614 77.3486 108.981C77.3486 109.347 77.3486 109.729 77.3486 110.126H76.4436ZM84.2475 110.226C83.9509 110.226 83.6909 110.169 83.4675 110.056C83.2442 109.939 83.0692 109.774 82.9425 109.561C82.8192 109.347 82.7575 109.091 82.7575 108.791C82.7575 108.521 82.8059 108.294 82.9025 108.111C82.9992 107.924 83.1259 107.772 83.2825 107.656C83.4392 107.539 83.6125 107.449 83.8025 107.386C83.9925 107.319 84.1825 107.269 84.3725 107.236L85.9275 106.966C85.9409 106.629 85.8959 106.376 85.7925 106.206C85.6925 106.032 85.5509 105.916 85.3675 105.856C85.1842 105.796 84.9809 105.766 84.7575 105.766C84.6442 105.766 84.5225 105.774 84.3925 105.791C84.2625 105.807 84.1242 105.834 83.9775 105.871C83.8342 105.904 83.6825 105.947 83.5225 106.001C83.3625 106.054 83.1942 106.119 83.0175 106.196L82.9725 105.441C83.0925 105.391 83.2275 105.342 83.3775 105.296C83.5309 105.249 83.6925 105.207 83.8625 105.171C84.0359 105.131 84.2125 105.101 84.3925 105.081C84.5725 105.061 84.7542 105.051 84.9375 105.051C85.3075 105.051 85.6259 105.109 85.8925 105.226C86.1625 105.342 86.3692 105.526 86.5125 105.776C86.6559 106.026 86.7275 106.352 86.7275 106.756C86.7275 106.909 86.7275 107.104 86.7275 107.341C86.7275 107.577 86.7275 107.802 86.7275 108.016V108.661C86.7275 108.887 86.7275 109.119 86.7275 109.356C86.7275 109.589 86.7275 109.846 86.7275 110.126H85.9775L85.9325 109.421H85.8525C85.7492 109.554 85.6192 109.682 85.4625 109.806C85.3059 109.929 85.1242 110.031 84.9175 110.111C84.7142 110.187 84.4909 110.226 84.2475 110.226ZM84.4875 109.541C84.6642 109.541 84.8409 109.504 85.0175 109.431C85.1942 109.357 85.3592 109.249 85.5125 109.106C85.6692 108.959 85.8009 108.776 85.9075 108.556L85.9125 107.486C85.8592 107.516 85.7875 107.546 85.6975 107.576C85.6109 107.606 85.4792 107.641 85.3025 107.681C85.1292 107.717 84.8875 107.764 84.5775 107.821C84.3875 107.854 84.2192 107.909 84.0725 107.986C83.9259 108.059 83.8092 108.161 83.7225 108.291C83.6392 108.417 83.5975 108.572 83.5975 108.756C83.5975 109.042 83.6825 109.246 83.8525 109.366C84.0259 109.482 84.2375 109.541 84.4875 109.541ZM87.8469 110.126V109.701C88.1302 109.331 88.4069 108.969 88.6769 108.616C88.9469 108.259 89.2019 107.924 89.4419 107.611L91.0319 105.526L91.1519 105.826H90.0569C89.8769 105.826 89.6619 105.826 89.4119 105.826C89.1652 105.826 88.9069 105.826 88.6369 105.826C88.3669 105.826 88.1102 105.826 87.8669 105.826V105.166H91.9169V105.661C91.7869 105.827 91.6352 106.022 91.4619 106.246C91.2919 106.469 91.1152 106.701 90.9319 106.941C90.7519 107.177 90.5786 107.402 90.4119 107.616L88.8319 109.681L88.7419 109.466H89.9519C90.1319 109.466 90.3436 109.466 90.5869 109.466C90.8336 109.466 91.0869 109.466 91.3469 109.466C91.6069 109.466 91.8486 109.466 92.0719 109.466V110.126H87.8469ZM94.4526 110.226C94.156 110.226 93.896 110.169 93.6726 110.056C93.4493 109.939 93.2743 109.774 93.1476 109.561C93.0243 109.347 92.9626 109.091 92.9626 108.791C92.9626 108.521 93.011 108.294 93.1076 108.111C93.2043 107.924 93.331 107.772 93.4876 107.656C93.6443 107.539 93.8176 107.449 94.0076 107.386C94.1976 107.319 94.3876 107.269 94.5776 107.236L96.1326 106.966C96.146 106.629 96.101 106.376 95.9976 106.206C95.8976 106.032 95.756 105.916 95.5726 105.856C95.3893 105.796 95.186 105.766 94.9626 105.766C94.8493 105.766 94.7276 105.774 94.5976 105.791C94.4676 105.807 94.3293 105.834 94.1826 105.871C94.0393 105.904 93.8876 105.947 93.7276 106.001C93.5676 106.054 93.3993 106.119 93.2226 106.196L93.1776 105.441C93.2976 105.391 93.4326 105.342 93.5826 105.296C93.736 105.249 93.8976 105.207 94.0676 105.171C94.241 105.131 94.4176 105.101 94.5976 105.081C94.7776 105.061 94.9593 105.051 95.1426 105.051C95.5126 105.051 95.831 105.109 96.0976 105.226C96.3676 105.342 96.5743 105.526 96.7176 105.776C96.861 106.026 96.9326 106.352 96.9326 106.756C96.9326 106.909 96.9326 107.104 96.9326 107.341C96.9326 107.577 96.9326 107.802 96.9326 108.016V108.661C96.9326 108.887 96.9326 109.119 96.9326 109.356C96.9326 109.589 96.9326 109.846 96.9326 110.126H96.1826L96.1376 109.421H96.0576C95.9543 109.554 95.8243 109.682 95.6676 109.806C95.511 109.929 95.3293 110.031 95.1226 110.111C94.9193 110.187 94.696 110.226 94.4526 110.226ZM94.6926 109.541C94.8693 109.541 95.046 109.504 95.2226 109.431C95.3993 109.357 95.5643 109.249 95.7176 109.106C95.8743 108.959 96.006 108.776 96.1126 108.556L96.1176 107.486C96.0643 107.516 95.9926 107.546 95.9026 107.576C95.816 107.606 95.6843 107.641 95.5076 107.681C95.3343 107.717 95.0926 107.764 94.7826 107.821C94.5926 107.854 94.4243 107.909 94.2776 107.986C94.131 108.059 94.0143 108.161 93.9276 108.291C93.8443 108.417 93.8026 108.572 93.8026 108.756C93.8026 109.042 93.8876 109.246 94.0576 109.366C94.231 109.482 94.4426 109.541 94.6926 109.541ZM101.817 110.126C101.594 109.899 101.367 109.672 101.137 109.446C100.91 109.219 100.685 108.994 100.462 108.771L99.607 107.916H99.257V107.326H99.657L100.377 106.561C100.597 106.331 100.819 106.099 101.042 105.866C101.265 105.629 101.485 105.396 101.702 105.166H102.722C102.435 105.456 102.15 105.746 101.867 106.036C101.584 106.326 101.302 106.616 101.022 106.906L100.177 107.766L100.147 107.366L101.127 108.376C101.424 108.669 101.719 108.962 102.012 109.256C102.309 109.546 102.602 109.836 102.892 110.126H101.817ZM98.527 110.126C98.527 109.756 98.527 109.401 98.527 109.061C98.527 108.721 98.527 108.346 98.527 107.936V105.191C98.527 104.771 98.527 104.362 98.527 103.966C98.527 103.569 98.527 103.182 98.527 102.806L99.352 102.706C99.352 103.102 99.352 103.506 99.352 103.916C99.352 104.322 99.352 104.747 99.352 105.191V108.066C99.352 108.439 99.352 108.787 99.352 109.111C99.352 109.434 99.352 109.772 99.352 110.126H98.527ZM103.947 110.126C103.947 109.756 103.947 109.401 103.947 109.061C103.947 108.721 103.947 108.346 103.947 107.936V105.191C103.947 104.771 103.947 104.362 103.947 103.966C103.947 103.569 103.947 103.182 103.947 102.806L104.772 102.706C104.772 103.102 104.772 103.506 104.772 103.916C104.772 104.322 104.772 104.747 104.772 105.191V105.991H104.862C104.962 105.851 105.09 105.707 105.247 105.561C105.407 105.414 105.595 105.292 105.812 105.196C106.032 105.096 106.282 105.046 106.562 105.046C107.089 105.046 107.474 105.197 107.717 105.501C107.96 105.804 108.082 106.244 108.082 106.821C108.082 107.037 108.082 107.229 108.082 107.396C108.082 107.562 108.082 107.742 108.082 107.936C108.082 108.329 108.082 108.701 108.082 109.051C108.082 109.397 108.082 109.756 108.082 110.126H107.257C107.257 109.756 107.257 109.399 107.257 109.056C107.257 108.709 107.257 108.347 107.257 107.971V107.031C107.257 106.634 107.185 106.334 107.042 106.131C106.902 105.927 106.647 105.826 106.277 105.826C106.054 105.826 105.85 105.871 105.667 105.961C105.484 106.051 105.317 106.172 105.167 106.326C105.02 106.476 104.889 106.642 104.772 106.826V107.971C104.772 108.361 104.772 108.726 104.772 109.066C104.772 109.402 104.772 109.756 104.772 110.126H103.947ZM111.079 110.236C110.873 110.236 110.664 110.219 110.454 110.186C110.248 110.152 110.053 110.109 109.869 110.056C109.686 109.999 109.526 109.936 109.389 109.866L109.454 109.091C109.608 109.177 109.771 109.254 109.944 109.321C110.121 109.384 110.303 109.434 110.489 109.471C110.679 109.504 110.869 109.521 111.059 109.521C111.243 109.521 111.411 109.501 111.564 109.461C111.721 109.417 111.844 109.341 111.934 109.231C112.028 109.117 112.074 108.954 112.074 108.741C112.074 108.601 112.034 108.486 111.954 108.396C111.874 108.306 111.739 108.224 111.549 108.151C111.363 108.077 111.109 107.996 110.789 107.906C110.526 107.832 110.291 107.742 110.084 107.636C109.878 107.529 109.714 107.386 109.594 107.206C109.478 107.026 109.419 106.791 109.419 106.501C109.419 106.051 109.566 105.697 109.859 105.441C110.156 105.181 110.554 105.051 111.054 105.051C111.261 105.051 111.461 105.069 111.654 105.106C111.848 105.139 112.026 105.184 112.189 105.241C112.353 105.297 112.494 105.357 112.614 105.421L112.544 106.196C112.384 106.096 112.219 106.014 112.049 105.951C111.879 105.884 111.716 105.837 111.559 105.811C111.403 105.781 111.264 105.766 111.144 105.766C111.008 105.766 110.871 105.786 110.734 105.826C110.601 105.862 110.489 105.932 110.399 106.036C110.309 106.136 110.264 106.281 110.264 106.471C110.264 106.607 110.296 106.722 110.359 106.816C110.423 106.909 110.533 106.992 110.689 107.066C110.846 107.139 111.063 107.216 111.339 107.296C111.669 107.392 111.951 107.494 112.184 107.601C112.421 107.704 112.603 107.841 112.729 108.011C112.856 108.181 112.919 108.416 112.919 108.716C112.919 109.006 112.856 109.266 112.729 109.496C112.603 109.722 112.404 109.902 112.134 110.036C111.864 110.169 111.513 110.236 111.079 110.236ZM116.081 110.236C115.751 110.236 115.471 110.179 115.241 110.066C115.011 109.949 114.836 109.774 114.716 109.541C114.599 109.304 114.541 109.002 114.541 108.636C114.541 108.346 114.541 108.059 114.541 107.776C114.541 107.489 114.541 107.209 114.541 106.936C114.541 106.659 114.541 106.394 114.541 106.141C114.541 105.884 114.541 105.639 114.541 105.406C114.541 105.066 114.541 104.751 114.541 104.461C114.541 104.171 114.541 103.869 114.541 103.556L115.356 103.376C115.356 103.622 115.356 103.851 115.356 104.061C115.356 104.271 115.356 104.482 115.356 104.696C115.356 104.909 115.356 105.146 115.356 105.406V108.441C115.356 108.797 115.431 109.066 115.581 109.246C115.734 109.426 115.967 109.516 116.281 109.516C116.404 109.516 116.539 109.496 116.686 109.456C116.832 109.412 116.962 109.346 117.076 109.256L117.146 109.981C117.079 110.031 116.989 110.076 116.876 110.116C116.762 110.152 116.637 110.181 116.501 110.201C116.364 110.224 116.224 110.236 116.081 110.236ZM113.586 105.821V105.166H117.096V105.821C116.762 105.821 116.426 105.821 116.086 105.821C115.749 105.821 115.421 105.821 115.101 105.821H114.761H113.586ZM119.462 110.226C119.166 110.226 118.906 110.169 118.682 110.056C118.459 109.939 118.284 109.774 118.157 109.561C118.034 109.347 117.972 109.091 117.972 108.791C117.972 108.521 118.021 108.294 118.117 108.111C118.214 107.924 118.341 107.772 118.497 107.656C118.654 107.539 118.827 107.449 119.017 107.386C119.207 107.319 119.397 107.269 119.587 107.236L121.142 106.966C121.156 106.629 121.111 106.376 121.007 106.206C120.907 106.032 120.766 105.916 120.582 105.856C120.399 105.796 120.196 105.766 119.972 105.766C119.859 105.766 119.737 105.774 119.607 105.791C119.477 105.807 119.339 105.834 119.192 105.871C119.049 105.904 118.897 105.947 118.737 106.001C118.577 106.054 118.409 106.119 118.232 106.196L118.187 105.441C118.307 105.391 118.442 105.342 118.592 105.296C118.746 105.249 118.907 105.207 119.077 105.171C119.251 105.131 119.427 105.101 119.607 105.081C119.787 105.061 119.969 105.051 120.152 105.051C120.522 105.051 120.841 105.109 121.107 105.226C121.377 105.342 121.584 105.526 121.727 105.776C121.871 106.026 121.942 106.352 121.942 106.756C121.942 106.909 121.942 107.104 121.942 107.341C121.942 107.577 121.942 107.802 121.942 108.016V108.661C121.942 108.887 121.942 109.119 121.942 109.356C121.942 109.589 121.942 109.846 121.942 110.126H121.192L121.147 109.421H121.067C120.964 109.554 120.834 109.682 120.677 109.806C120.521 109.929 120.339 110.031 120.132 110.111C119.929 110.187 119.706 110.226 119.462 110.226ZM119.702 109.541C119.879 109.541 120.056 109.504 120.232 109.431C120.409 109.357 120.574 109.249 120.727 109.106C120.884 108.959 121.016 108.776 121.122 108.556L121.127 107.486C121.074 107.516 121.002 107.546 120.912 107.576C120.826 107.606 120.694 107.641 120.517 107.681C120.344 107.717 120.102 107.764 119.792 107.821C119.602 107.854 119.434 107.909 119.287 107.986C119.141 108.059 119.024 108.161 118.937 108.291C118.854 108.417 118.812 108.572 118.812 108.756C118.812 109.042 118.897 109.246 119.067 109.366C119.241 109.482 119.452 109.541 119.702 109.541ZM123.537 110.126C123.537 109.756 123.537 109.401 123.537 109.061C123.537 108.721 123.537 108.346 123.537 107.936V107.436C123.537 107.069 123.537 106.694 123.537 106.311C123.537 105.927 123.537 105.546 123.537 105.166L124.257 105.116L124.282 106.036H124.372C124.478 105.886 124.615 105.734 124.782 105.581C124.948 105.427 125.145 105.301 125.372 105.201C125.598 105.097 125.858 105.046 126.152 105.046C126.678 105.046 127.063 105.197 127.307 105.501C127.55 105.804 127.672 106.244 127.672 106.821C127.672 107.037 127.672 107.229 127.672 107.396C127.672 107.562 127.672 107.742 127.672 107.936C127.672 108.329 127.672 108.701 127.672 109.051C127.672 109.397 127.672 109.756 127.672 110.126H126.847C126.847 109.756 126.847 109.399 126.847 109.056C126.847 108.709 126.847 108.347 126.847 107.971V107.031C126.847 106.634 126.775 106.334 126.632 106.131C126.492 105.927 126.237 105.826 125.867 105.826C125.643 105.826 125.44 105.871 125.257 105.961C125.073 106.051 124.907 106.172 124.757 106.326C124.61 106.476 124.478 106.642 124.362 106.826V107.971C124.362 108.361 124.362 108.726 124.362 109.066C124.362 109.402 124.362 109.756 124.362 110.126H123.537ZM128.719 105.471C128.849 105.284 128.951 105.097 129.024 104.911C129.101 104.724 129.156 104.529 129.189 104.326C129.223 104.122 129.239 103.902 129.239 103.666C129.239 103.509 129.239 103.351 129.239 103.191C129.239 103.031 129.239 102.869 129.239 102.706L129.659 102.676C129.843 102.689 129.976 102.759 130.059 102.886C130.143 103.009 130.184 103.161 130.184 103.341C130.184 103.547 130.156 103.752 130.099 103.956C130.046 104.159 129.971 104.354 129.874 104.541C129.778 104.727 129.669 104.899 129.549 105.056C129.429 105.209 129.304 105.342 129.174 105.456L128.719 105.471ZM132.349 110.236C132.142 110.236 131.934 110.219 131.724 110.186C131.517 110.152 131.322 110.109 131.139 110.056C130.956 109.999 130.796 109.936 130.659 109.866L130.724 109.091C130.877 109.177 131.041 109.254 131.214 109.321C131.391 109.384 131.572 109.434 131.759 109.471C131.949 109.504 132.139 109.521 132.329 109.521C132.512 109.521 132.681 109.501 132.834 109.461C132.991 109.417 133.114 109.341 133.204 109.231C133.297 109.117 133.344 108.954 133.344 108.741C133.344 108.601 133.304 108.486 133.224 108.396C133.144 108.306 133.009 108.224 132.819 108.151C132.632 108.077 132.379 107.996 132.059 107.906C131.796 107.832 131.561 107.742 131.354 107.636C131.147 107.529 130.984 107.386 130.864 107.206C130.747 107.026 130.689 106.791 130.689 106.501C130.689 106.051 130.836 105.697 131.129 105.441C131.426 105.181 131.824 105.051 132.324 105.051C132.531 105.051 132.731 105.069 132.924 105.106C133.117 105.139 133.296 105.184 133.459 105.241C133.622 105.297 133.764 105.357 133.884 105.421L133.814 106.196C133.654 106.096 133.489 106.014 133.319 105.951C133.149 105.884 132.986 105.837 132.829 105.811C132.672 105.781 132.534 105.766 132.414 105.766C132.277 105.766 132.141 105.786 132.004 105.826C131.871 105.862 131.759 105.932 131.669 106.036C131.579 106.136 131.534 106.281 131.534 106.471C131.534 106.607 131.566 106.722 131.629 106.816C131.692 106.909 131.802 106.992 131.959 107.066C132.116 107.139 132.332 107.216 132.609 107.296C132.939 107.392 133.221 107.494 133.454 107.601C133.691 107.704 133.872 107.841 133.999 108.011C134.126 108.181 134.189 108.416 134.189 108.716C134.189 109.006 134.126 109.266 133.999 109.496C133.872 109.722 133.674 109.902 133.404 110.036C133.134 110.169 132.782 110.236 132.349 110.236ZM139.699 110.126C139.365 110.126 139.057 110.126 138.774 110.126C138.49 110.126 138.239 110.126 138.019 110.126C137.799 110.126 137.619 110.126 137.479 110.126C137.479 109.729 137.479 109.347 137.479 108.981C137.479 108.614 137.479 108.211 137.479 107.771V105.376C137.479 104.932 137.479 104.524 137.479 104.151C137.479 103.777 137.479 103.392 137.479 102.996C137.855 102.996 138.267 102.996 138.714 102.996C139.164 102.996 139.625 102.996 140.099 102.996C140.515 102.996 140.869 103.036 141.159 103.116C141.452 103.192 141.69 103.304 141.874 103.451C142.057 103.594 142.192 103.769 142.279 103.976C142.365 104.182 142.409 104.416 142.409 104.676C142.409 104.979 142.354 105.244 142.244 105.471C142.134 105.697 141.984 105.886 141.794 106.036C141.607 106.186 141.394 106.297 141.154 106.371V106.461C141.4 106.507 141.634 106.594 141.854 106.721C142.074 106.847 142.252 107.029 142.389 107.266C142.525 107.499 142.594 107.799 142.594 108.166C142.594 108.446 142.545 108.706 142.449 108.946C142.355 109.182 142.199 109.389 141.979 109.566C141.762 109.742 141.467 109.881 141.094 109.981C140.724 110.077 140.259 110.126 139.699 110.126ZM138.364 109.376H139.769C140.222 109.376 140.587 109.324 140.864 109.221C141.144 109.117 141.345 108.971 141.469 108.781C141.595 108.591 141.659 108.364 141.659 108.101C141.659 107.664 141.505 107.352 141.199 107.166C140.892 106.976 140.462 106.881 139.909 106.881H138.164V106.156H139.909C140.275 106.156 140.574 106.096 140.804 105.976C141.037 105.856 141.207 105.699 141.314 105.506C141.42 105.312 141.474 105.101 141.474 104.871C141.474 104.481 141.352 104.196 141.109 104.016C140.869 103.836 140.51 103.746 140.034 103.746H138.364C138.364 104.036 138.364 104.324 138.364 104.611C138.364 104.897 138.364 105.212 138.364 105.556V107.601C138.364 107.937 138.364 108.246 138.364 108.526C138.364 108.806 138.364 109.089 138.364 109.376ZM146.014 110.236C145.604 110.236 145.242 110.166 144.929 110.026C144.619 109.882 144.359 109.689 144.149 109.446C143.939 109.202 143.779 108.924 143.669 108.611C143.562 108.294 143.509 107.962 143.509 107.616C143.509 107.119 143.609 106.679 143.809 106.296C144.012 105.909 144.299 105.604 144.669 105.381C145.042 105.157 145.485 105.046 145.999 105.046C146.395 105.046 146.747 105.111 147.054 105.241C147.36 105.371 147.62 105.552 147.834 105.786C148.047 106.019 148.209 106.292 148.319 106.606C148.429 106.916 148.484 107.252 148.484 107.616C148.484 108.106 148.384 108.549 148.184 108.946C147.984 109.342 147.699 109.657 147.329 109.891C146.962 110.121 146.524 110.236 146.014 110.236ZM146.014 109.516C146.377 109.516 146.679 109.426 146.919 109.246C147.159 109.066 147.339 108.831 147.459 108.541C147.579 108.251 147.639 107.942 147.639 107.616C147.639 107.242 147.572 106.917 147.439 106.641C147.305 106.364 147.117 106.149 146.874 105.996C146.63 105.842 146.342 105.766 146.009 105.766C145.649 105.766 145.345 105.847 145.099 106.011C144.852 106.174 144.665 106.396 144.539 106.676C144.415 106.956 144.354 107.269 144.354 107.616C144.354 107.942 144.414 108.251 144.534 108.541C144.657 108.831 144.842 109.066 145.089 109.246C145.335 109.426 145.644 109.516 146.014 109.516ZM149.845 110.126C149.845 109.756 149.845 109.401 149.845 109.061C149.845 108.721 149.845 108.346 149.845 107.936V107.436C149.845 107.069 149.845 106.694 149.845 106.311C149.845 105.927 149.845 105.546 149.845 105.166L150.565 105.116L150.59 106.036H150.68C150.787 105.886 150.924 105.734 151.09 105.581C151.257 105.427 151.454 105.301 151.68 105.201C151.907 105.097 152.167 105.046 152.46 105.046C152.987 105.046 153.372 105.197 153.615 105.501C153.859 105.804 153.98 106.244 153.98 106.821C153.98 107.037 153.98 107.229 153.98 107.396C153.98 107.562 153.98 107.742 153.98 107.936C153.98 108.329 153.98 108.701 153.98 109.051C153.98 109.397 153.98 109.756 153.98 110.126H153.155C153.155 109.756 153.155 109.399 153.155 109.056C153.155 108.709 153.155 108.347 153.155 107.971V107.031C153.155 106.634 153.084 106.334 152.94 106.131C152.8 105.927 152.545 105.826 152.175 105.826C151.952 105.826 151.749 105.871 151.565 105.961C151.382 106.051 151.215 106.172 151.065 106.326C150.919 106.476 150.787 106.642 150.67 106.826V107.971C150.67 108.361 150.67 108.726 150.67 109.066C150.67 109.402 150.67 109.756 150.67 110.126H149.845ZM157.343 110.236C156.869 110.236 156.476 110.116 156.163 109.876C155.849 109.632 155.614 109.314 155.458 108.921C155.301 108.524 155.223 108.094 155.223 107.631C155.223 107.137 155.306 106.696 155.473 106.306C155.639 105.916 155.881 105.609 156.198 105.386C156.518 105.159 156.904 105.046 157.358 105.046C157.588 105.046 157.798 105.077 157.988 105.141C158.181 105.201 158.351 105.282 158.498 105.386C158.644 105.486 158.766 105.597 158.863 105.721H158.948V105.191C158.948 104.771 158.948 104.364 158.948 103.971C158.948 103.574 158.948 103.186 158.948 102.806L159.773 102.706C159.773 103.109 159.773 103.514 159.773 103.921C159.773 104.324 159.773 104.747 159.773 105.191V107.936C159.773 108.346 159.773 108.721 159.773 109.061C159.773 109.401 159.773 109.756 159.773 110.126H159.053L159.013 109.446H158.933C158.803 109.616 158.658 109.759 158.498 109.876C158.338 109.992 158.161 110.081 157.968 110.141C157.778 110.204 157.569 110.236 157.343 110.236ZM157.593 109.496C157.799 109.496 157.986 109.464 158.153 109.401C158.319 109.334 158.468 109.241 158.598 109.121C158.731 109.001 158.848 108.856 158.948 108.686V106.481C158.844 106.331 158.721 106.206 158.578 106.106C158.438 106.002 158.284 105.926 158.118 105.876C157.951 105.822 157.781 105.796 157.608 105.796C157.258 105.796 156.969 105.879 156.743 106.046C156.516 106.212 156.346 106.436 156.233 106.716C156.123 106.992 156.068 107.299 156.068 107.636C156.068 107.959 156.121 108.262 156.228 108.546C156.334 108.826 156.499 109.054 156.723 109.231C156.946 109.407 157.236 109.496 157.593 109.496ZM163.073 110.126C163.12 109.739 163.167 109.357 163.213 108.981C163.263 108.604 163.315 108.194 163.368 107.751L163.663 105.401C163.717 104.964 163.767 104.557 163.813 104.181C163.86 103.804 163.91 103.409 163.963 102.996H164.873C165.08 103.502 165.28 103.992 165.473 104.466C165.667 104.936 165.858 105.404 166.048 105.871L167.178 108.641H167.248L168.368 105.876C168.558 105.402 168.748 104.932 168.938 104.466C169.128 103.999 169.325 103.509 169.528 102.996H170.438C170.488 103.402 170.535 103.794 170.578 104.171C170.625 104.547 170.677 104.956 170.733 105.396L171.023 107.771C171.077 108.204 171.127 108.607 171.173 108.981C171.22 109.351 171.267 109.732 171.313 110.126H170.448C170.372 109.492 170.298 108.891 170.228 108.321C170.158 107.751 170.093 107.219 170.033 106.726L169.773 104.596H169.708L168.803 106.891C168.583 107.447 168.363 108.006 168.143 108.566C167.923 109.122 167.718 109.642 167.528 110.126H166.913C166.793 109.822 166.66 109.489 166.513 109.126C166.367 108.762 166.215 108.391 166.058 108.011C165.905 107.631 165.755 107.262 165.608 106.906L164.673 104.596H164.608L164.348 106.721C164.288 107.217 164.223 107.751 164.153 108.321C164.087 108.891 164.015 109.492 163.938 110.126H163.073ZM173.896 110.226C173.599 110.226 173.339 110.169 173.116 110.056C172.893 109.939 172.718 109.774 172.591 109.561C172.468 109.347 172.406 109.091 172.406 108.791C172.406 108.521 172.454 108.294 172.551 108.111C172.648 107.924 172.774 107.772 172.931 107.656C173.088 107.539 173.261 107.449 173.451 107.386C173.641 107.319 173.831 107.269 174.021 107.236L175.576 106.966C175.589 106.629 175.544 106.376 175.441 106.206C175.341 106.032 175.199 105.916 175.016 105.856C174.833 105.796 174.629 105.766 174.406 105.766C174.293 105.766 174.171 105.774 174.041 105.791C173.911 105.807 173.773 105.834 173.626 105.871C173.483 105.904 173.331 105.947 173.171 106.001C173.011 106.054 172.843 106.119 172.666 106.196L172.621 105.441C172.741 105.391 172.876 105.342 173.026 105.296C173.179 105.249 173.341 105.207 173.511 105.171C173.684 105.131 173.861 105.101 174.041 105.081C174.221 105.061 174.403 105.051 174.586 105.051C174.956 105.051 175.274 105.109 175.541 105.226C175.811 105.342 176.018 105.526 176.161 105.776C176.304 106.026 176.376 106.352 176.376 106.756C176.376 106.909 176.376 107.104 176.376 107.341C176.376 107.577 176.376 107.802 176.376 108.016V108.661C176.376 108.887 176.376 109.119 176.376 109.356C176.376 109.589 176.376 109.846 176.376 110.126H175.626L175.581 109.421H175.501C175.398 109.554 175.268 109.682 175.111 109.806C174.954 109.929 174.773 110.031 174.566 110.111C174.363 110.187 174.139 110.226 173.896 110.226ZM174.136 109.541C174.313 109.541 174.489 109.504 174.666 109.431C174.843 109.357 175.008 109.249 175.161 109.106C175.318 108.959 175.449 108.776 175.556 108.556L175.561 107.486C175.508 107.516 175.436 107.546 175.346 107.576C175.259 107.606 175.128 107.641 174.951 107.681C174.778 107.717 174.536 107.764 174.226 107.821C174.036 107.854 173.868 107.909 173.721 107.986C173.574 108.059 173.458 108.161 173.371 108.291C173.288 108.417 173.246 108.572 173.246 108.756C173.246 109.042 173.331 109.246 173.501 109.366C173.674 109.482 173.886 109.541 174.136 109.541ZM177.97 110.126C177.97 109.756 177.97 109.401 177.97 109.061C177.97 108.721 177.97 108.346 177.97 107.936V107.436C177.97 107.069 177.97 106.694 177.97 106.311C177.97 105.927 177.97 105.546 177.97 105.166L178.69 105.116L178.715 106.126H178.8C178.937 105.822 179.094 105.594 179.27 105.441C179.45 105.284 179.632 105.179 179.815 105.126C179.999 105.072 180.167 105.046 180.32 105.046C180.414 105.046 180.507 105.052 180.6 105.066C180.694 105.079 180.782 105.101 180.865 105.131L180.79 105.961C180.68 105.941 180.58 105.924 180.49 105.911C180.404 105.897 180.302 105.891 180.185 105.891C180.089 105.891 179.979 105.906 179.855 105.936C179.735 105.962 179.61 106.021 179.48 106.111C179.354 106.197 179.23 106.329 179.11 106.506C178.99 106.679 178.885 106.911 178.795 107.201V107.971C178.795 108.361 178.795 108.726 178.795 109.066C178.795 109.402 178.795 109.756 178.795 110.126H177.97ZM185.254 110.126C185.031 109.899 184.804 109.672 184.574 109.446C184.348 109.219 184.123 108.994 183.899 108.771L183.044 107.916H182.694V107.326H183.094L183.814 106.561C184.034 106.331 184.256 106.099 184.479 105.866C184.703 105.629 184.923 105.396 185.139 105.166H186.159C185.873 105.456 185.588 105.746 185.304 106.036C185.021 106.326 184.739 106.616 184.459 106.906L183.614 107.766L183.584 107.366L184.564 108.376C184.861 108.669 185.156 108.962 185.449 109.256C185.746 109.546 186.039 109.836 186.329 110.126H185.254ZM181.964 110.126C181.964 109.756 181.964 109.401 181.964 109.061C181.964 108.721 181.964 108.346 181.964 107.936V105.191C181.964 104.771 181.964 104.362 181.964 103.966C181.964 103.569 181.964 103.182 181.964 102.806L182.789 102.706C182.789 103.102 182.789 103.506 182.789 103.916C182.789 104.322 182.789 104.747 182.789 105.191V108.066C182.789 108.439 182.789 108.787 182.789 109.111C182.789 109.434 182.789 109.772 182.789 110.126H181.964ZM189.4 110.236C188.806 110.236 188.318 110.122 187.935 109.896C187.551 109.669 187.266 109.359 187.08 108.966C186.893 108.572 186.8 108.122 186.8 107.616C186.8 107.116 186.891 106.672 187.075 106.286C187.258 105.899 187.521 105.597 187.865 105.381C188.208 105.161 188.618 105.051 189.095 105.051C189.515 105.051 189.875 105.132 190.175 105.296C190.478 105.459 190.711 105.699 190.875 106.016C191.038 106.329 191.12 106.717 191.12 107.181C191.12 107.304 191.116 107.416 191.11 107.516C191.106 107.612 191.096 107.711 191.08 107.811L190.355 107.446C190.361 107.392 190.365 107.342 190.365 107.296C190.368 107.246 190.37 107.197 190.37 107.151C190.37 106.681 190.253 106.324 190.02 106.081C189.786 105.834 189.481 105.711 189.105 105.711C188.801 105.711 188.54 105.789 188.32 105.946C188.103 106.099 187.935 106.312 187.815 106.586C187.695 106.859 187.635 107.171 187.635 107.521V107.636C187.635 108.022 187.701 108.356 187.835 108.636C187.968 108.916 188.17 109.132 188.44 109.286C188.713 109.436 189.06 109.511 189.48 109.511C189.636 109.511 189.801 109.499 189.975 109.476C190.151 109.449 190.325 109.409 190.495 109.356C190.668 109.302 190.833 109.232 190.99 109.146L191.025 109.891C190.898 109.961 190.751 110.022 190.585 110.076C190.418 110.126 190.235 110.164 190.035 110.191C189.835 110.221 189.623 110.236 189.4 110.236ZM187.145 107.811V107.221L190.575 107.191L191.08 107.381V107.811H187.145ZM194.245 110.236C193.915 110.236 193.635 110.179 193.405 110.066C193.175 109.949 193 109.774 192.88 109.541C192.763 109.304 192.705 109.002 192.705 108.636C192.705 108.346 192.705 108.059 192.705 107.776C192.705 107.489 192.705 107.209 192.705 106.936C192.705 106.659 192.705 106.394 192.705 106.141C192.705 105.884 192.705 105.639 192.705 105.406C192.705 105.066 192.705 104.751 192.705 104.461C192.705 104.171 192.705 103.869 192.705 103.556L193.52 103.376C193.52 103.622 193.52 103.851 193.52 104.061C193.52 104.271 193.52 104.482 193.52 104.696C193.52 104.909 193.52 105.146 193.52 105.406V108.441C193.52 108.797 193.595 109.066 193.745 109.246C193.898 109.426 194.132 109.516 194.445 109.516C194.568 109.516 194.703 109.496 194.85 109.456C194.997 109.412 195.127 109.346 195.24 109.256L195.31 109.981C195.243 110.031 195.153 110.076 195.04 110.116C194.927 110.152 194.802 110.181 194.665 110.201C194.528 110.224 194.388 110.236 194.245 110.236ZM191.75 105.821V105.166H195.26V105.821C194.927 105.821 194.59 105.821 194.25 105.821C193.913 105.821 193.585 105.821 193.265 105.821H192.925H191.75Z" fill="black"/>
<path d="M220.082 41.409C220.361 40.6916 221.312 40.5456 221.794 41.1461L246.719 72.2227C247.2 72.8232 246.851 73.7199 246.09 73.8368L206.715 79.8839C205.954 80.0008 205.352 79.2502 205.631 78.5328L220.082 41.409Z" fill="#038726"/>
<path d="M203.167 13.7813C203.072 13.0174 203.839 12.4371 204.548 12.7367L233.267 24.8712C233.976 25.1708 234.095 26.1257 233.481 26.59L208.613 45.3937C207.999 45.858 207.112 45.4835 207.017 44.7196L203.167 13.7813Z" fill="black"/>
<path d="M197.186 37.2862C197.763 36.7769 198.675 37.0836 198.828 37.8382L203.283 59.9096C203.436 60.6641 202.714 61.3007 201.985 61.0553L180.642 53.8786C179.913 53.6332 179.722 52.69 180.299 52.1808L197.186 37.2862Z" fill="#0590FF"/>
</svg>
